<region> lovel=1 hivel=4 amp_velcurve_4=1 sample=../samples/snares/sn12bop/brs/snare_on/cls/sn12wbop_brsl_cls_005r.wav
<region> lovel=5 hivel=8 amp_velcurve_8=1 sample=../samples/snares/sn12bop/brs/snare_on/cls/sn12wbop_brsl_cls_006r.wav
<region> lovel=9 hivel=12 amp_velcurve_12=1 sample=../samples/snares/sn12bop/brs/snare_on/cls/sn12wbop_brsl_cls_013r.wav
<region> lovel=13 hivel=16 amp_velcurve_16=1 sample=../samples/snares/sn12bop/brs/snare_on/cls/sn12wbop_brsl_cls_017r.wav
<region> lovel=17 hivel=20 amp_velcurve_20=1 sample=../samples/snares/sn12bop/brs/snare_on/cls/sn12wbop_brsl_cls_018r.wav
<region> lovel=21 hivel=24 amp_velcurve_24=1 sample=../samples/snares/sn12bop/brs/snare_on/cls/sn12wbop_brsl_cls_019r.wav
<region> lovel=25 hivel=28 amp_velcurve_28=1 sample=../samples/snares/sn12bop/brs/snare_on/cls/sn12wbop_brsl_cls_021r.wav
<region> lovel=29 hivel=32 amp_velcurve_32=1 sample=../samples/snares/sn12bop/brs/snare_on/cls/sn12wbop_brsl_cls_022r.wav
<region> lovel=33 hivel=37 amp_velcurve_37=1 sample=../samples/snares/sn12bop/brs/snare_on/cls/sn12wbop_brsl_cls_023r.wav
<region> lovel=38 hivel=42 amp_velcurve_42=1 sample=../samples/snares/sn12bop/brs/snare_on/cls/sn12wbop_brsl_cls_024r.wav
<region> lovel=43 hivel=47 amp_velcurve_47=1 sample=../samples/snares/sn12bop/brs/snare_on/cls/sn12wbop_brsl_cls_025r.wav
<region> lovel=48 hivel=52 amp_velcurve_52=1 sample=../samples/snares/sn12bop/brs/snare_on/cls/sn12wbop_brsl_cls_026r.wav
<region> lovel=53 hivel=57 amp_velcurve_57=1 sample=../samples/snares/sn12bop/brs/snare_on/cls/sn12wbop_brsl_cls_028r.wav
<region> lovel=58 hivel=62 amp_velcurve_62=1 sample=../samples/snares/sn12bop/brs/snare_on/cls/sn12wbop_brsl_cls_029r.wav
<region> lovel=63 hivel=67 amp_velcurve_67=1 sample=../samples/snares/sn12bop/brs/snare_on/cls/sn12wbop_brsl_cls_031r.wav
<region> lovel=68 hivel=72 amp_velcurve_72=1 sample=../samples/snares/sn12bop/brs/snare_on/cls/sn12wbop_brsl_cls_032r.wav
<region> lovel=73 hivel=77 amp_velcurve_77=1 sample=../samples/snares/sn12bop/brs/snare_on/cls/sn12wbop_brsl_cls_033r.wav
<region> lovel=78 hivel=82 amp_velcurve_82=1 sample=../samples/snares/sn12bop/brs/snare_on/cls/sn12wbop_brsl_cls_034r.wav
<region> lovel=83 hivel=87 amp_velcurve_87=1 sample=../samples/snares/sn12bop/brs/snare_on/cls/sn12wbop_brsl_cls_035r.wav
<region> lovel=88 hivel=92 amp_velcurve_92=1 sample=../samples/snares/sn12bop/brs/snare_on/cls/sn12wbop_brsl_cls_036r.wav
<region> lovel=93 hivel=97 amp_velcurve_97=1 sample=../samples/snares/sn12bop/brs/snare_on/cls/sn12wbop_brsl_cls_037r.wav
<region> lovel=98 hivel=102 amp_velcurve_102=1 sample=../samples/snares/sn12bop/brs/snare_on/cls/sn12wbop_brsl_cls_038r.wav
<region> lovel=103 hivel=107 amp_velcurve_107=1 sample=../samples/snares/sn12bop/brs/snare_on/cls/sn12wbop_brsl_cls_040r.wav
<region> lovel=108 hivel=112 amp_velcurve_112=1 sample=../samples/snares/sn12bop/brs/snare_on/cls/sn12wbop_brsl_cls_041r.wav
<region> lovel=113 hivel=117 amp_velcurve_117=1 sample=../samples/snares/sn12bop/brs/snare_on/cls/sn12wbop_brsl_cls_042r.wav
<region> lovel=118 hivel=122 amp_velcurve_122=1 sample=../samples/snares/sn12bop/brs/snare_on/cls/sn12wbop_brsl_cls_045r.wav
<region> lovel=123 hivel=127 amp_velcurve_127=1 sample=../samples/snares/sn12bop/brs/snare_on/cls/sn12wbop_brsl_cls_046r.wav
